<svg height='100px' width='100px'  fill="#000000" xmlns="http://www.w3.org/2000/svg" xmlns:xlink="http://www.w3.org/1999/xlink" version="1.1" x="0px" y="0px" viewBox="0 0 100 100" style="enable-background:new 0 0 100 100;" xml:space="preserve"><path d="M50,13.4C50,13.4,50,13.4,50,13.4c-9.8,0-19,3.8-25.9,10.7C17.2,31,13.4,40.2,13.4,50s3.8,19,10.7,25.9  C31,82.8,40.2,86.6,50,86.6c0,0,0,0,0,0c9.8,0,19-3.8,25.9-10.7C82.8,69,86.6,59.8,86.6,50s-3.8-19-10.7-25.9  C69,17.2,59.8,13.4,50,13.4z M74.5,74.5C67.9,81,59.2,84.6,50,84.6S32.1,81,25.5,74.5S15.4,59.2,15.4,50S19,32.1,25.5,25.5  S40.8,15.4,50,15.4S67.9,19,74.5,25.5S84.6,40.8,84.6,50S81,67.9,74.5,74.5z"></path><path d="M66.6,31.8c-0.4-0.4-1-0.4-1.4,0L41.9,55.2L34.8,48c-0.4-0.4-1-0.4-1.4,0l-5.5,5.5c-0.2,0.2-0.3,0.4-0.3,0.7  s0.1,0.5,0.3,0.7l13.4,13.2c0.2,0.2,0.4,0.3,0.7,0.3c0.3,0,0.5-0.1,0.7-0.3l29.4-29.4c0.4-0.4,0.4-1,0-1.4L66.6,31.8z M42,66  L30,54.2l4.1-4.1l7.1,7.1c0.4,0.4,1,0.4,1.4,0L65.9,34L70,38L42,66z"></path></svg>