<svg width="100" height="100" fill="none" xmlns="http://www.w3.org/2000/svg"><path d="M75.498 30.982a.748.748 0 00-.646-.476l-52.27-3.666a.75.75 0 00-.512 1.339l32.093 24.953a.747.747 0 001.004-.076l6.157-6.496 6.311 2.951.003-.006a.738.738 0 00.932-.248.75.75 0 00.132-.426V38.776l6.641-7.006a.75.75 0 00.155-.788zm-20.951 20.55L27.073 30.171l34.813 13.617-7.339 7.744zm7.865-6.118l.768-.81 1.786 2.005-2.554-1.195zm4.79 1.45l-3.445-3.867a.734.734 0 00-.289-.193l.003-.006-30.528-11.942 34.259 8.213v7.795zm.504-9.217L31.511 28.97l41.651 2.922-5.456 5.755zM43.23 68.371h-.02c-1.13.02-2.149.12-3.11.319a.74.74 0 00-.6.73c0 .05 0 .1.01.149a.75.75 0 00.74.601c.04 0 .09 0 .14-.01.86-.181 1.82-.271 2.851-.29a.764.764 0 00.74-.761.76.76 0 00-.751-.738zm6.09.56c-1.061-.18-2.03-.32-2.971-.41-.02 0-.029-.01-.05-.01h-.021a.746.746 0 00-.799.68c-.011.021-.011.051-.011.07 0 .39.29.71.681.75.899.09 1.859.22 2.92.4a.752.752 0 00.859-.62c.01-.03.01-.07.01-.11a.741.741 0 00-.618-.75zm25.659-14.54c0 .13.04.271.11.391.47.789.84 1.659 1.12 2.579a.752.752 0 001.44-.43c-.31-1.03-.739-2.01-1.27-2.91-.2-.35-.68-.47-1.03-.27a.79.79 0 00-.37.64zM37.07 69.711c-.961.479-1.83 1.1-2.601 1.85a.8.8 0 00-.229.53c0 .2.08.39.22.54.14.14.33.22.53.22.199 0 .39-.069.529-.21a8.67 8.67 0 012.23-1.59c.26-.13.42-.4.41-.69 0-.109-.03-.22-.08-.319a.763.763 0 00-1.009-.331zm18.17.41h-.021c-.8-.181-1.85-.41-2.9-.62-.01 0-.01 0-.029-.01a.76.76 0 00-.88.59.708.708 0 00-.021.149c0 .351.25.66.601.73H52c.79.16 1.59.34 2.359.51l.561.12c.05.01.1.01.16.01.35 0 .649-.24.729-.59.01-.05.021-.1.021-.15 0-.359-.25-.67-.59-.739zm16.869-.24l-.109.08c-.69.5-1.46.87-2.34 1.149a.755.755 0 00-.521.721c0 .08.01.149.03.22.1.32.39.53.72.53.07 0 .15-.021.23-.04a9.701 9.701 0 002.75-1.36c.029-.02.05-.03.069-.05l.062-.04c.189-.14.3-.36.3-.6 0-.16-.05-.32-.14-.45-.23-.32-.721-.391-1.051-.16zm2.521-17.85c0-.2-.08-.391-.23-.53-.81-.771-1.71-1.391-2.68-1.82a.773.773 0 00-.99.381c-.17.379 0 .829.38.999h.011c.81.36 1.56.88 2.25 1.53.14.13.319.2.52.2s.391-.08.54-.23a.735.735 0 00.199-.53zM61.1 71.261h-.02a62.398 62.398 0 01-2.92-.53.75.75 0 00-.88.59.73.73 0 00-.021.15c.01.36.26.66.61.73 1.08.22 2.04.39 2.92.529.02.011.04.011.06.011h.01a.753.753 0 00.85-.62c0-.04.01-.08.01-.12a.758.758 0 00-.619-.74zm15.57-6.01c-.36-.181-.82-.01-.99.35 0 .01 0 .01-.01.01-.39.841-.9 1.631-1.5 2.351-.11.14-.18.31-.18.479 0 .221.1.44.27.58.14.11.31.17.48.17.229 0 .439-.09.579-.26.69-.83 1.271-1.729 1.711-2.689a.6.6 0 00.069-.32.736.736 0 00-.429-.671zm1.53-5.15v-.05c0-.01-.011-.01-.011-.02a.745.745 0 00-.79-.69.732.732 0 00-.699.75v.04c.052.94-.005 1.883-.169 2.81-.011.051-.021.101-.011.15a.74.74 0 00.75.73c.351 0 .66-.25.73-.6v-.01l.01-.021a13.16 13.16 0 00.19-3.089zM66.95 71.61a.12.12 0 00-.061.011c-.939.06-1.8.06-2.89-.021a.77.77 0 00-.8.7v.03a.75.75 0 00.689.77c.62.04 1.19.061 1.74.061.479 0 .93-.011 1.37-.051a.737.737 0 00.689-.76v-.04a.747.747 0 00-.737-.7z" fill="#EEEDE4"/></svg>