<svg width="100" height="100" fill="none" xmlns="http://www.w3.org/2000/svg"><path d="M50 13.4c-9.8 0-19 3.8-25.9 10.7C17.2 31 13.4 40.2 13.4 50c0 9.8 3.8 19 10.7 25.9C31 82.8 40.2 86.6 50 86.6c9.8 0 19-3.8 25.9-10.7C82.8 69 86.6 59.8 86.6 50c0-9.8-3.8-19-10.7-25.9C69 17.2 59.8 13.4 50 13.4zm24.5 61.1C67.9 81 59.2 84.6 50 84.6S32.1 81 25.5 74.5C18.9 68 15.4 59.2 15.4 50S19 32.1 25.5 25.5C32 18.9 40.8 15.4 50 15.4S67.9 19 74.5 25.5C81.1 32 84.6 40.8 84.6 50S81 67.9 74.5 74.5z" fill="#EEEDE4"/><path d="M66.6 31.8c-.4-.4-1-.4-1.4 0L41.9 55.2 34.8 48c-.4-.4-1-.4-1.4 0l-5.5 5.5c-.2.2-.3.4-.3.7 0 .3.1.5.3.7l13.4 13.2c.2.2.4.3.7.3.3 0 .5-.1.7-.3l29.4-29.4c.4-.4.4-1 0-1.4l-5.5-5.5zM42 66L30 54.2l4.1-4.1 7.1 7.1c.4.4 1 .4 1.4 0L65.9 34l4.1 4-28 28z" fill="#EEEDE4"/></svg>