<svg id="svg-sprite" xmlns="http://www.w3.org/2000/svg"><defs><symbol class="xd-svg xd-svg--card-button" viewBox="0 0 52 52" fill="none" id="card-button"><circle cx="26" cy="26" r="24" stroke-width="2"/><path d="M34 26H18m16 0l-6 6m6-6l-6-6" stroke-width="2" stroke-linecap="round" stroke-linejoin="round"/></symbol><symbol class="xd-svg xd-svg--checkmark" viewBox="0 0 10 8" id="checkmark"><g id="checkmark_UI-Icon/checkmark/$ui-05" stroke="none" stroke-width="1" fill="none" fill-rule="evenodd"><path id="checkmark_Path-7" fill="currentColor" fill-rule="nonzero" d="M8.498 0L10 1.502 3.672 7.83 0 4.158l1.502-1.502 2.17 2.17z"/></g></symbol><symbol class="xd-svg xd-svg--chevron-down" viewBox="0 0 12 7" id="chevron-down"><g id="chevron-down_UI-Icon/chevron--down/$ui-05" stroke="none" stroke-width="1" fill="none" fill-rule="evenodd"><path id="chevron-down_chevron" fill="currentColor" fill-rule="nonzero" transform="rotate(180 5.998 3.5)" d="M5.994 1.45L.726 7 0 6.315 5.994 0l6.002 6.315L11.27 7z"/></g></symbol><symbol class="xd-svg xd-svg--chevron-left" viewBox="0 0 7 12" id="chevron-left"><g id="chevron-left_UI-Icon/chevron--left/$ui-05" stroke="none" stroke-width="1" fill="none" fill-rule="evenodd"><path id="chevron-left_chevron" fill="currentColor" fill-rule="nonzero" transform="rotate(-90 3.5 5.998)" d="M3.496 3.948l-5.268 5.55-.726-.685 5.993-6.315 6.003 6.315-.726.685z"/></g></symbol><symbol class="xd-svg xd-svg--chevron-right" viewBox="0 0 7 12" id="chevron-right"><g id="chevron-right_UI-Icon/chevron--right/$ui-05" stroke="none" stroke-width="1" fill="none" fill-rule="evenodd"><path id="chevron-right_chevron" fill="currentColor" fill-rule="nonzero" transform="rotate(90 3.512 5.998)" d="M3.508 3.941L-1.76 9.509l-.726-.687 5.993-6.336L9.51 8.822l-.726.688z"/></g></symbol><symbol class="xd-svg xd-svg--chevron-up" viewBox="0 0 12 7" id="chevron-up"><g id="chevron-up_UI-Icon/chevron--up/$ui-05" stroke="none" stroke-width="1" fill="none" fill-rule="evenodd"><path id="chevron-up_chevron" fill="currentColor" fill-rule="nonzero" d="M5.994 1.45L.726 7 0 6.315 5.994 0l6.002 6.315L11.27 7z"/></g></symbol><symbol class="xd-svg xd-svg--close" viewBox="0 0 24 20" id="close"><g id="close_icon-/-hamburger-/-close" stroke="none" stroke-width="1" fill="currentColor" fill-rule="evenodd"><path id="close_Path" transform="rotate(45 12 10)" d="M0 11h24V9H0z"/><path id="close_Path" transform="scale(-1 1) rotate(45 0 -18.97)" d="M0 11h24V9H0z"/></g></symbol><symbol class="xd-svg xd-svg--columns" viewBox="0 0 24 24" id="columns"><path d="M19 6H6c-1.1 0-2 .9-2 2v9c0 1.1.9 2 2 2h13c1.1 0 2-.9 2-2V8c0-1.1-.9-2-2-2M6 17.5c-.3 0-.5-.2-.5-.5V8c0-.3.2-.5.5-.5h3v10zm13.5-.5c0 .3-.2.5-.5.5h-3v-10h3c.3 0 .5.2.5.5z"/></symbol><symbol class="xd-svg xd-svg--download" viewBox="0 0 15 18" id="download"><g id="download_Symbols" stroke="none" stroke-width="1" fill="none" fill-rule="evenodd"><g id="download_Button-/-Large-/-Download-/-Enabled" transform="translate(0 -3)" fill="currentColor" fill-rule="nonzero" stroke="currentColor"><g id="download_UI-Icon/download/$ui-05" transform="translate(1 4)"><path d="M7 0v11.043L10.823 7l.677.64-4.998 5.287L1.5 7.643l.677-.64L6 11.041V0z" id="download_arrow"/><path d="M12.071 15v-2H13v2a1 1 0 01-1 1H1a1 1 0 01-1-1v-2h.929v2z" id="download_bottom"/></g></g></g></symbol><symbol class="xd-svg xd-svg--eight-image-gallery" viewBox="0 0 24 24" id="eight-image-gallery"><path fill="currentColor" d="M24 11.52V5.77H0v12.47h24zm-.96-4.79v4.79h-4.8V6.73zm-5.76 0v4.79h-4.8V6.73zm-5.76 0v4.79h-4.8V6.73zm-5.76 0v4.79H.96V6.73zM.96 17.28v-4.79h4.8v4.79zm5.76 0v-4.79h4.8v4.79zm5.76 0v-4.79h4.8v4.79zm5.76 0v-4.79h4.8v4.79z"/></symbol><symbol class="xd-svg xd-svg--facebook" viewBox="0 0 24 24" fill="none" id="facebook"><path fill-rule="evenodd" clip-rule="evenodd" d="M12 24c6.627 0 12-5.373 12-12S18.627 0 12 0 0 5.373 0 12s5.373 12 12 12m3-16.2V5h-2.1a2.8 2.8 0 00-2.8 2.8v2.8H8v2.8h2.1V19h2.8v-5.6H15v-2.8h-2.1V8.85c0-.483.217-1.05.7-1.05z" fill="currentColor"/></symbol><symbol class="xd-svg xd-svg--filters" viewBox="0 0 18 16" fill="none" id="filters"><path d="M5.286 0A2.355 2.355 0 003.04 1.692H.634c-.37 0-.634.29-.634.66s.29.661.66.661h2.406c.264.978 1.19 1.692 2.247 1.692a2.36 2.36 0 002.273-1.692h9.753c.37 0 .661-.29.661-.66s-.29-.661-.66-.661H7.585A2.418 2.418 0 005.286 0m.027 1.322a1.031 1.031 0 110 2.062 1.031 1.031 0 01-.001-2.062m7.93 3.964a2.355 2.355 0 00-2.246 1.692H.66c-.397 0-.661.29-.661.66s.29.662.66.662h10.336c.264.978 1.189 1.691 2.246 1.691A2.36 2.36 0 0015.515 8.3h1.824c.37 0 .661-.291.661-.661s-.29-.661-.66-.661h-1.825a2.36 2.36 0 00-2.273-1.692m.027 1.322a1.032 1.032 0 010 2.062c-.555 0-1.031-.45-1.031-1.031 0-.582.45-1.031 1.03-1.031m-4.81 4.493a2.355 2.355 0 00-2.247 1.692H.661c-.397 0-.661.29-.661.66s.29.662.66.662h5.578c.264.977 1.19 1.691 2.247 1.691a2.36 2.36 0 002.273-1.691h6.581c.37 0 .661-.291.661-.661s-.29-.661-.66-.661h-6.61A2.36 2.36 0 008.458 11.1m.027 1.322a1.032 1.032 0 010 2.062c-.555 0-1.031-.45-1.031-1.031.026-.582.476-1.031 1.03-1.031" fill="currentColor"/></symbol><symbol class="xd-svg xd-svg--five-image-center-gallery" viewBox="0 0 24 24" id="five-image-center-gallery"><path fill="currentColor" d="M24 5.75H.01v5.8H0v6.69h23.99v-5.8H24zM.99 6.73h4.72v4.74H.99zM.98 17.28v-4.74h4.74v4.74zm16.26 0H6.69v-4.83h.01V6.73h10.53v10.55zm1.04-10.55h4.74v4.74h-4.74zm4.73 10.55h-4.74v-4.74h4.74z"/></symbol><symbol class="xd-svg xd-svg--five-image-left-gallery" viewBox="0 0 24 24" id="five-image-left-gallery"><path fill="currentColor" d="M24 5.74H0v12.52h23.98v-5.82h.01V5.75zm-.96.96v4.77h-4.77V6.7zm-10.51 0h4.77v4.77h-4.77zm-.98 10.6H.96V6.7h10.6v10.6zm.96 0v-4.77h4.77v4.77zm10.51 0h-4.77v-4.77h4.77z"/></symbol><symbol class="xd-svg xd-svg--five-image-right-gallery" viewBox="0 0 24 24" id="five-image-right-gallery"><path fill="currentColor" d="M11.48 5.74H.02v5.82H0v6.69h24V5.74zm0 .96v4.77H6.71V6.7zm-10.5.01h4.77v4.77H.98zM.97 17.3v-4.77h4.77v4.77H.96zm10.51 0H6.71v-4.77h4.77zm11.57 0h-10.6V6.7h10.6z"/></symbol><symbol class="xd-svg xd-svg--four-image-gallery" viewBox="0 0 24 24" id="four-image-gallery"><path fill="currentColor" d="M18.24 8.7H0v6.59h24V8.7zM.96 14.34V9.67h4.8v4.67zm5.76 0V9.67h4.8v4.67zm5.76 0V9.67h4.8v4.67zm10.56 0h-4.8V9.67h4.8z"/></symbol><symbol class="xd-svg xd-svg--full-width-image-gallery" viewBox="0 0 24 24" id="full-width-image-gallery"><path d="M0 5.7v12.5h24V5.8H0zm23 5.8v5.8H1V6.7h22z"/></symbol><symbol class="xd-svg xd-svg--full-width-image-stacked-gallery" viewBox="0 0 24 24" id="full-width-image-stacked-gallery"><path d="M0 4.52v14.96h23.98v-6.96h.01v-8H24L0 4.51zm23.04 6.85h-.02v6.97H.96V5.67h22.08z"/><path d="M.96 11.5h22.08v1.01H.96z"/></symbol><symbol class="xd-svg xd-svg--instagram" viewBox="0 0 24 24" fill="none" id="instagram"><path fill-rule="evenodd" clip-rule="evenodd" d="M24 12c0 6.627-5.373 12-12 12S0 18.627 0 12 5.373 0 12 0s12 5.373 12 12m-8.5-7A3.5 3.5 0 0119 8.5v7a3.5 3.5 0 01-3.5 3.5h-7A3.5 3.5 0 015 15.5v-7A3.5 3.5 0 018.5 5zm-4.613 5.376a2.417 2.417 0 112.226 4.29 2.417 2.417 0 01-2.226-4.29m1.638-1.4a3.583 3.583 0 10-1.05 7.09 3.583 3.583 0 001.05-7.09M16 9a1 1 0 100-2 1 1 0 000 2" fill="currentColor"/></symbol><symbol class="xd-svg xd-svg--link-arrow" viewBox="0 0 52 52" fill="none" id="link-arrow"><circle cx="26" cy="26" r="24" fill="none" stroke-width="2" stroke="currentColor"/><path d="M34 26H18m16 0l-6 6m6-6l-6-6" stroke="currentColor" stroke-width="2" stroke-linecap="round" stroke-linejoin="round"/></symbol><symbol class="xd-svg xd-svg--linkedin" viewBox="0 0 24 24" fill="none" id="linkedin"><path fill-rule="evenodd" clip-rule="evenodd" d="M12 24c6.627 0 12-5.373 12-12S18.627 0 12 0 0 5.373 0 12s5.373 12 12 12m3.334-7H18v-4.833a3.006 3.006 0 00-3-3.007c-.76 0-1.893.46-2.333 1.173V9H10v8h2.667v-4.5c0-.707.46-1.293 1.167-1.293.706 0 1.5.586 1.5 1.293zM8.667 9v8H6V9zm0-2.667a1.333 1.333 0 10-2.667 0 1.333 1.333 0 002.667 0" fill="currentColor"/></symbol><symbol class="xd-svg xd-svg--location" viewBox="0 0 24 24" id="location"><g id="location_icon-/-location" stroke="none" stroke-width="1" fill="none" fill-rule="evenodd"><g id="location_ic_location_on_black_24px"><path d="M12 2C8.13 2 5 5.13 5 9c0 5.25 7 13 7 13s7-7.75 7-13c0-3.87-3.13-7-7-7m0 9.5a2.5 2.5 0 010-5 2.5 2.5 0 010 5" id="location_Shape" fill="currentColor" fill-rule="nonzero"/><path id="location_Shape" d="M0 0h24v24H0z"/></g></g></symbol><symbol class="xd-svg xd-svg--minus-icon" viewBox="0 0 50 50" fill="none" id="minus-icon"><circle cx="24" cy="24" r="24" transform="matrix(0 -1 -1 0 49 49)" stroke="currentColor" stroke-width="2"/><path d="M17 25h16" stroke="currentColor" stroke-width="1.5" stroke-linecap="round" stroke-linejoin="round"/></symbol><symbol class="xd-svg xd-svg--phone" viewBox="0 0 24 24" id="phone"><g id="phone_icon-/-phone" stroke="none" stroke-width="1" fill="none" fill-rule="evenodd"><g id="phone_ic_call_black_24px"><path id="phone_Shape" d="M0 0h24v24H0z"/><path d="M6.62 10.79c1.44 2.83 3.76 5.14 6.59 6.59l2.2-2.2c.27-.27.67-.36 1.02-.24 1.12.37 2.33.57 3.57.57.55 0 1 .45 1 1V20c0 .55-.45 1-1 1-9.39 0-17-7.61-17-17 0-.55.45-1 1-1h3.5c.55 0 1 .45 1 1 0 1.25.2 2.45.57 3.57.11.35.03.74-.25 1.02z" id="phone_Shape" fill="currentColor" fill-rule="nonzero"/></g></g></symbol><symbol class="xd-svg xd-svg--play-icon" viewBox="0 0 16 16" id="play-icon"><g id="play-icon_Layer_2" data-name="Layer 2"><g id="play-icon_Layer_1-2" data-name="Layer 1"><g id="play-icon_Symbols"><g id="play-icon_UI-Icon_play--solid_ui-05" data-name="UI-Icon/play--solid/$ui-05"><path id="play-icon_play" fill="currentColor" fill-rule="evenodd" d="M8 0a8 8 0 11-8 8 8 8 0 018-8M5.53 4.65a.3.3 0 000 .13v6.45a.25.25 0 00.25.25.24.24 0 00.12 0l5.5-3.23a.26.26 0 00.09-.35.4.4 0 00-.09-.09L5.87 4.56a.25.25 0 00-.34.09"/></g></g></g></g></symbol><symbol class="xd-svg xd-svg--plus-icon" viewBox="0 0 53 53" fill="none" id="plus-icon"><circle cx="26.5" cy="26.5" r="25.5" stroke="currentColor" stroke-width="2"/><path d="M19 27h16m-8-8v16" stroke="currentColor" stroke-width="2" stroke-linecap="round" stroke-linejoin="round"/></symbol><symbol class="xd-svg xd-svg--quote" viewBox="0 0 64 60" fill="none" id="quote"><path d="M27.245 0l2.466 3.662C14.417 11.718 8.991 24.9 8.251 31.247v.488c1.48-.732 3.206-1.464 4.933-1.708h3.453c8.387.976 13.321 6.835 13.321 15.135-.493 7.324-6.167 13.915-14.554 13.915C7.757 59.077.603 54.683.11 42.72c0-1.22-.247-2.197 0-3.418C.85 27.341 8.743 8.788 27.245 0m34.042 0l2.466 3.662C48.46 11.718 43.28 24.9 42.293 31.247v.488c1.48-.732 3.206-1.464 5.18-1.708h3.206C59.066 31.003 64 36.862 64 45.162c-.493 7.324-6.167 13.915-14.307 13.915-12.334 0-15.541-9.277-15.541-19.774C34.892 27.341 42.785 8.788 61.286 0" fill="currentColor"/></symbol><symbol class="xd-svg xd-svg--search" viewBox="0 0 20 20" id="search"><g id="search_icon-/-search" stroke="none" stroke-width="1" fill="none" fill-rule="evenodd"><g id="search_ic_search_black_24px" fill="currentColor" fill-rule="nonzero"><path d="M14.217 12.579h-.898l-.319-.31a7.42 7.42 0 001.786-4.836C14.786 3.328 11.476 0 7.393 0S0 3.328 0 7.433s3.31 7.433 7.393 7.433a7.34 7.34 0 004.811-1.796l.307.32v.904L18.198 20l1.695-1.704zm-6.824 0c-2.832 0-5.118-2.299-5.118-5.146S4.56 2.287 7.393 2.287s5.118 2.298 5.118 5.146-2.286 5.146-5.118 5.146" id="search_Shape"/></g></g></symbol><symbol class="xd-svg xd-svg--slider-arrow" viewBox="0 0 41 41" id="slider-arrow"><g id="slider-arrow_Layer_2" data-name="Layer 2"><g id="slider-arrow_Layer_1-2" data-name="Layer 1"><g id="slider-arrow_Symbols"><g id="slider-arrow__1440-_-Testimonials-_-Slider" data-name="1440-/-Testimonials-/-Slider"><g id="slider-arrow_Group"><circle id="slider-arrow_Oval" class="cls-1" cx="20.5" cy="20.5" r="20"/><path id="slider-arrow_Path-12" class="cls-2" stroke-width="2" d="M17.5 14.5l6.09 6.09-6.09 6.08"/></g></g></g></g></g></symbol><symbol class="xd-svg xd-svg--stacked-gallery-left" viewBox="0 0 35 22" fill="none" id="stacked-gallery-left"><path stroke="currentColor" d="M.5 4.5h29v7H.5zm0 7h29v6H.5z"/><path stroke="currentColor" d="M.5.5h34v21H.5z"/></symbol><symbol class="xd-svg xd-svg--stacked-gallery-right" viewBox="0 0 35 22" fill="none" id="stacked-gallery-right"><path stroke="currentColor" d="M.5.5h34v21H.5z"/><path stroke="currentColor" d="M5.5 4.5h29v7h-29zm0 7h29v6h-29z"/></symbol><symbol class="xd-svg xd-svg--tiktok" viewBox="0 0 24 24" fill="none" id="tiktok"><path fill-rule="evenodd" clip-rule="evenodd" d="M12 24c6.627 0 12-5.373 12-12S18.627 0 12 0 0 5.373 0 12s5.373 12 12 12m-.67-11.767V9.767l-.025-.007-.033-.008a4.6 4.6 0 00-1.615.06c-2.461.502-4.09 3.021-3.555 5.498.534 2.465 2.875 4.052 5.336 3.619 2.25-.396 3.842-2.312 3.84-4.624a3330 3330 0 00-.008-5.235v-.163c1.124.843 2.355 1.274 3.73 1.28V7.75c-1.027-.023-1.907-.38-2.63-1.107-.722-.726-1.078-1.616-1.111-2.643h-2.417v1.083q.001 4.624-.004 9.25c0 .15-.011.303-.041.45-.238 1.175-1.291 1.92-2.481 1.759-1.16-.156-2.026-1.336-1.839-2.504.215-1.337 1.45-2.155 2.747-1.82a1 1 0 00.07.01z" fill="currentColor"/></symbol><symbol class="xd-svg xd-svg--twitter" viewBox="0 0 24 24" fill="none" id="twitter"><path fill-rule="evenodd" clip-rule="evenodd" d="M12 24c6.627 0 12-5.373 12-12S18.627 0 12 0 0 5.373 0 12s5.373 12 12 12m6.288-15.771A6 6 0 0020 7.749 6 6 0 0118.51 9.3c.007.132.007.257.007.39 0 3.946-3.014 8.498-8.499 8.498a8.45 8.45 0 01-4.58-1.343q.356.042.71.042a5.93 5.93 0 003.71-1.281 2.98 2.98 0 01-2.784-2.074 2.96 2.96 0 001.343-.05 2.99 2.99 0 01-2.394-2.93v-.02c.404.208.863.348 1.357.348a2.94 2.94 0 01-1.33-2.478c0-.543.147-1.058.405-1.497a8.49 8.49 0 006.153 3.118 3 3 0 01-.077-.682 2.983 2.983 0 012.972-2.986c.878 0 1.65.348 2.2.947a6 6 0 001.893-.731 3 3 0 01-1.308 1.657" fill="currentColor"/></symbol><symbol class="xd-svg xd-svg--twitter-x" viewBox="0 0 24 24" fill="none" id="twitter-x"><path fill-rule="evenodd" clip-rule="evenodd" d="M12 24c6.627 0 12-5.373 12-12S18.627 0 12 0 0 5.373 0 12s5.373 12 12 12m7.111-19H16.89l-3.86 4.481L9.778 5H5l5.658 7.655L5.222 19h2.334l4.168-4.918c.194.254 3.61 4.918 3.61 4.918H20l-5.902-8.07zm-7.184 5.263l5.427 7.313h-1.316c-2.781-3.706-5.562-7.412-8.395-11.184h1.411z" fill="currentColor"/></symbol><symbol class="xd-svg xd-svg--vimeo" viewBox="0 0 384 336.04" id="vimeo"><g id="vimeo_Layer_2" data-name="Layer 2"><path fill="currentColor" d="M384 59.29V78c-.38 2.71-.76 5.41-1.13 8.12-3 21.58-11.19 41.37-21 60.54-16.84 32.81-38.12 62.72-60.68 91.76-19.29 24.81-39.72 48.59-64.13 68.6-13.9 11.39-28.79 21.06-46.23 26.35-20.56 6.22-37.61 1.53-51.15-15.41-11.48-14.35-19.38-30.62-24.68-48-5.62-18.49-10.08-37.34-15.24-56-7.44-26.77-14.76-53.61-22.67-80.27-3.19-10.76-7.72-21.21-15.09-29.91-8-9.39-13.48-10.21-22.56-4-1 .7-2.14 1.29-3.18 2-6 4-12 8-18.14 12.11L0 90.79V90c1-.75 2-1.44 2.91-2.26 18.94-17 37.72-34.29 56.87-51.11C71.7 26.2 84.22 16.38 98.64 9.44c21.62-10.44 43.6-3.82 56.11 16.65A83 83 0 01165.61 55c4.07 23 7.45 46.08 11.45 69.07 4 22.75 8.29 45.46 16.48 67.15a90.8 90.8 0 009.8 18.82c4.44 6.53 9.82 7.15 16.07 2.28a72.5 72.5 0 0012.23-12 275.6 275.6 0 0034.87-57.08c5.56-12.17 9.35-24.75 7.32-38.43-1.64-11.06-8.19-18.3-19.22-19.18-7.11-.58-14.4.3-21.52 1.22-4.31.55-8.45 2.43-13.49 4 2.71-7.27 5-14 7.69-20.51 6.58-15.94 15.18-30.66 27.43-43C276.43 5.5 303.23-2.27 333.14.56c27.54 2.6 42.23 16.31 48.29 43.26 1.14 5.09 1.73 10.31 2.57 15.47" id="vimeo_Layer_1-2" data-name="Layer 1"/></g></symbol><symbol class="xd-svg xd-svg--youtube" viewBox="0 0 24 24" fill="none" id="youtube"><path fill-rule="evenodd" clip-rule="evenodd" d="M24 12c0 6.627-5.373 12-12 12S0 18.627 0 12 5.373 0 12 0s12 5.373 12 12m-5.293-2.591a1.6 1.6 0 00-.446-.734 1.8 1.8 0 00-.789-.43C16.378 8 12 8 12 8s-4.378 0-5.472.268c-.3.077-.572.226-.789.43a1.6 1.6 0 00-.446.734A15.5 15.5 0 005 12.512c-.007 1.04.091 2.079.293 3.102.083.268.24.512.457.707.216.196.484.338.778.411C7.622 17 12 17 12 17s4.378 0 5.472-.268c.3-.077.572-.226.789-.43a1.6 1.6 0 00.446-.734c.199-1.009.297-2.032.293-3.056.007-1.04-.091-2.08-.293-3.103m-4.48 3.103l-3.659 1.903v-3.807z" fill="currentColor"/></symbol></defs></svg>