<svg width="18" height="16" viewBox="0 0 18 16" fill="none" xmlns="http://www.w3.org/2000/svg">
<path d="M5.28634 0C4.22907 0 3.3304 0.713656 3.03965 1.69163H0.634361C0.264317 1.69163 0 1.98238 0 2.35242C0 2.72247 0.290749 3.01322 0.660793 3.01322H3.06608C3.3304 3.99119 4.25551 4.70485 5.31278 4.70485C6.39648 4.70485 7.29515 3.99119 7.5859 3.01322H17.3392C17.7093 3.01322 18 2.72247 18 2.35242C18 1.98238 17.7093 1.69163 17.3392 1.69163H7.5859C7.26872 0.713656 6.37004 0 5.28634 0ZM5.31278 1.32159C5.86784 1.32159 6.34361 1.77092 6.34361 2.35242C6.34361 2.93392 5.86784 3.38326 5.31278 3.38326C4.75771 3.38326 4.28194 2.93392 4.28194 2.35242C4.28194 1.77092 4.75771 1.32159 5.31278 1.32159Z" fill="#252B2D"/>
<path d="M13.2423 5.28635C12.185 5.28635 11.2863 6 10.9956 6.97798H0.660793C0.264317 6.97798 0 7.26873 0 7.63877C0 8.00881 0.290749 8.29956 0.660793 8.29956H10.9956C11.2599 9.27754 12.185 9.99119 13.2423 9.99119C14.326 9.99119 15.2247 9.27754 15.5154 8.29956H17.3392C17.7093 8.29956 18 8.00881 18 7.63877C18 7.26873 17.7093 6.97798 17.3392 6.97798H15.5154C15.2247 6 14.326 5.28635 13.2423 5.28635ZM13.2687 6.60793C13.8238 6.60793 14.2996 7.05727 14.2996 7.63877C14.2996 8.22027 13.8238 8.66961 13.2687 8.66961C12.7137 8.66961 12.2379 8.22027 12.2379 7.63877C12.2379 7.05727 12.6872 6.60793 13.2687 6.60793Z" fill="#252B2D"/>
<path d="M8.45815 11.1013C7.40088 11.1013 6.5022 11.815 6.21145 12.7929H0.660793C0.264317 12.7929 0 13.0837 0 13.4537C0 13.8238 0.290749 14.1145 0.660793 14.1145H6.23788C6.5022 15.0925 7.42731 15.8062 8.48458 15.8062C9.56828 15.8062 10.467 15.0925 10.7577 14.1145H17.3392C17.7093 14.1145 18 13.8238 18 13.4537C18 13.0837 17.7093 12.7929 17.3392 12.7929H10.7313C10.4405 11.815 9.54185 11.1013 8.45815 11.1013ZM8.48458 12.4229C9.03965 12.4229 9.51542 12.8722 9.51542 13.4537C9.51542 14.0352 9.03965 14.4846 8.48458 14.4846C7.92952 14.4846 7.45374 14.0352 7.45374 13.4537C7.48018 12.8722 7.92952 12.4229 8.48458 12.4229Z" fill="#252B2D"/>
</svg>
