<svg width="24" height="24" viewBox="0 0 24 24" fill="none" xmlns="http://www.w3.org/2000/svg">
<path fill-rule="evenodd" clip-rule="evenodd" d="M24 12C24 18.6274 18.6274 24 12 24C5.37258 24 0 18.6274 0 12C0 5.37258 5.37258 0 12 0C18.6274 0 24 5.37258 24 12ZM15.5 5C17.433 5 19 6.567 19 8.5V15.5C19 17.433 17.433 19 15.5 19H8.5C6.567 19 5 17.433 5 15.5V8.5C5 6.567 6.567 5 8.5 5H15.5ZM10.8868 10.3757C11.338 10.1416 11.8515 10.0557 12.3544 10.1303C12.8673 10.2064 13.3421 10.4454 13.7087 10.812C14.0753 11.1786 14.3143 11.6535 14.3904 12.1663C14.465 12.6692 14.3791 13.1827 14.145 13.6339C13.9108 14.0851 13.5404 14.4509 13.0864 14.6795C12.6323 14.908 12.1178 14.9876 11.6159 14.9068C11.1141 14.826 10.6505 14.5891 10.291 14.2297C9.93161 13.8702 9.69466 13.4066 9.61391 12.9048C9.53315 12.4029 9.6127 11.8884 9.84123 11.4343C10.0698 10.9803 10.4356 10.6099 10.8868 10.3757ZM12.5255 8.97626C11.7799 8.86571 11.0185 8.99305 10.3495 9.34019C9.6805 9.68732 9.13798 10.2366 8.79912 10.9098C8.46026 11.583 8.34232 12.346 8.46206 13.0901C8.5818 13.8342 8.93313 14.5217 9.46608 15.0546C9.99903 15.5876 10.6865 15.9389 11.4306 16.0587C12.1747 16.1784 12.9377 16.0604 13.6109 15.7216C14.2841 15.3827 14.8334 14.8402 15.1805 14.1712C15.5277 13.5022 15.655 12.7408 15.5444 11.9952C15.4317 11.2347 15.0773 10.5307 14.5337 9.98704C13.99 9.44341 13.286 9.08903 12.5255 8.97626ZM16 9C16.5523 9 17 8.55229 17 8C17 7.44772 16.5523 7 16 7C15.4477 7 15 7.44772 15 8C15 8.55229 15.4477 9 16 9Z" fill="#292929"/>
</svg>
