<svg width="24" height="24" viewBox="0 0 24 24" fill="none" xmlns="http://www.w3.org/2000/svg">
<path fill-rule="evenodd" clip-rule="evenodd" d="M12 24C18.6274 24 24 18.6274 24 12C24 5.37258 18.6274 0 12 0C5.37258 0 0 5.37258 0 12C0 18.6274 5.37258 24 12 24ZM15.3336 17H18.0002V12.1667C18.0002 10.52 16.6669 9.16001 15.0002 9.16001C14.2402 9.16001 13.1069 9.62001 12.6669 10.3333V9.00001H10.0002V17H12.6669V12.5C12.6669 11.7933 13.1269 11.2067 13.8336 11.2067C14.5402 11.2067 15.3336 11.7933 15.3336 12.5V17ZM8.66681 9.00001V17H6.00015V9.00001H8.66681ZM8.66681 6.33333C8.66681 5.59695 8.06986 5 7.33348 5C6.5971 5 6.00015 5.59695 6.00015 6.33333C6.00015 7.06971 6.5971 7.66666 7.33348 7.66666C8.06986 7.66666 8.66681 7.06971 8.66681 6.33333Z" fill="#292929"/>
</svg>
