<svg width="64" height="60" viewBox="0 0 64 60" fill="none" xmlns="http://www.w3.org/2000/svg">
<path d="M27.2445 0L29.7113 3.66179C14.4171 11.7177 8.99015 24.9002 8.25011 31.2473V31.7355C9.73019 31.0032 11.457 30.2708 13.1837 30.0267C14.1704 30.0267 14.9105 30.0267 15.6505 30.0267C15.8972 30.0267 16.3906 30.0267 16.6373 30.0267C25.0244 31.0032 29.958 36.862 29.958 45.1621C29.4647 52.4857 23.791 59.0769 15.4039 59.0769C7.75675 59.0769 0.602998 54.6828 0.109636 42.7209C0.109636 41.5003 -0.137045 40.5238 0.109636 39.3032C0.849679 27.3414 8.74347 8.7883 27.2445 0ZM61.2865 0L63.7533 3.66179C48.4591 11.7177 43.2788 24.9002 42.2921 31.2473V31.7355C43.7722 31.0032 45.4989 30.2708 47.4724 30.0267C48.2124 30.0267 48.9525 30.0267 49.6925 30.0267C49.9392 30.0267 50.4325 30.0267 50.6792 30.0267C59.0664 31.0032 64 36.862 64 45.1621C63.5066 52.4857 57.833 59.0769 49.6925 59.0769C37.3585 59.0769 34.1516 49.8004 34.1516 39.3032C34.8916 27.3414 42.7854 8.7883 61.2865 0Z" fill="#008181"/>
</svg>
