<?xml version="1.0" encoding="UTF-8"?>
<svg width="20px" height="20px" viewBox="0 0 20 20" version="1.1" xmlns="http://www.w3.org/2000/svg" xmlns:xlink="http://www.w3.org/1999/xlink">
    <!-- Generator: Sketch 61 (89581) - https://sketch.com -->
    <title>icon / search</title>
    <desc>Created with Sketch.</desc>
    <g id="icon-/-search" stroke="none" stroke-width="1" fill="none" fill-rule="evenodd">
        <g id="ic_search_black_24px" fill="#000001" fill-rule="nonzero">
            <path d="M14.2173078,12.5786164 L13.318774,12.5786164 L13.0003063,12.2698685 C14.1149432,10.9662664 14.7860002,9.27387078 14.7860002,7.43281875 C14.7860002,3.32761578 11.4762109,0 7.39300008,0 C3.30978927,0 0,3.32761578 0,7.43281875 C0,11.5380217 3.30978927,14.8656375 7.39300008,14.8656375 C9.22418933,14.8656375 10.9075186,14.1909663 12.2041371,13.0703259 L12.5112309,13.3905089 L12.5112309,14.2938822 L18.198154,20 L19.8928571,18.2961692 L14.2173078,12.5786164 Z M7.39300008,12.5786164 C4.56091236,12.5786164 2.27476926,10.2801601 2.27476926,7.43281875 C2.27476926,4.58547742 4.56091236,2.28702115 7.39300008,2.28702115 C10.2250878,2.28702115 12.5112309,4.58547742 12.5112309,7.43281875 C12.5112309,10.2801601 10.2250878,12.5786164 7.39300008,12.5786164 Z" id="Shape"></path>
        </g>
    </g>
</svg>