<svg width="24" height="24" viewBox="0 0 24 24" fill="none" xmlns="http://www.w3.org/2000/svg">
<path fill-rule="evenodd" clip-rule="evenodd" d="M12 24C18.6274 24 24 18.6274 24 12C24 5.37258 18.6274 0 12 0C5.37258 0 0 5.37258 0 12C0 18.6274 5.37258 24 12 24ZM11.3304 12.2325V9.76675C11.3209 9.76451 11.3125 9.76218 11.3047 9.76003C11.2928 9.75672 11.2823 9.75382 11.2716 9.75228C10.7299 9.67167 10.1929 9.70233 9.65702 9.81159C7.19579 10.3142 5.56609 12.833 6.10222 15.3104C6.63556 17.775 8.97655 19.3624 11.4381 18.9287C13.6877 18.5325 15.2801 16.6168 15.2784 14.3052C15.2774 13.0587 15.275 11.8121 15.2726 10.5655C15.2716 10.067 15.2706 9.5685 15.2698 9.06999V8.90737C16.3939 9.75001 17.6248 10.1808 19 10.1874V7.74999C17.9729 7.72729 17.0928 7.3694 16.3701 6.64285C15.6478 5.91714 15.2919 5.02654 15.2588 4H12.8416V4.16035C12.8416 4.46776 12.8415 4.77517 12.8415 5.08258C12.8413 8.16591 12.8411 11.2494 12.8385 14.333C12.8385 14.4834 12.8265 14.6364 12.7968 14.7834C12.5588 15.9578 11.5056 16.7022 10.3159 16.5419C9.15648 16.3858 8.2902 15.2063 8.47741 14.0384C8.69181 12.7011 9.92663 11.8826 11.2237 12.2175C11.2464 12.2234 11.27 12.2259 11.2948 12.2284C11.3064 12.2296 11.3183 12.2309 11.3304 12.2325Z" fill="#292929"/>
</svg>
