<svg width="24" height="24" viewBox="0 0 24 24" fill="none" xmlns="http://www.w3.org/2000/svg">
<path fill-rule="evenodd" clip-rule="evenodd" d="M12 24C18.6274 24 24 18.6274 24 12C24 5.37258 18.6274 0 12 0C5.37258 0 0 5.37258 0 12C0 18.6274 5.37258 24 12 24ZM18.2877 8.22858C18.8863 8.15201 19.464 7.99192 20 7.7483C19.5963 8.35387 19.0951 8.88288 18.5104 9.30052C18.5174 9.43278 18.5174 9.55807 18.5174 9.69032C18.5174 13.637 15.5034 18.1893 10.0184 18.1893C8.33393 18.1893 6.76082 17.6951 5.43829 16.8459C5.67495 16.8737 5.91161 16.8876 6.14828 16.8876C7.55433 16.8876 8.84205 16.4143 9.85831 15.6069C8.54275 15.586 7.44992 14.709 7.07405 13.5326C7.25502 13.5674 7.44296 13.5883 7.6309 13.5883C7.90236 13.5883 8.16687 13.5535 8.41745 13.4839C7.05316 13.2124 6.02299 12.0013 6.02299 10.5534V10.5326C6.4267 10.7414 6.88611 10.8806 7.38031 10.8806C6.57288 10.3585 6.05083 9.43974 6.05083 8.4026C6.05083 7.85967 6.197 7.34458 6.45455 6.90605C7.92325 8.70887 10.1298 9.89914 12.6078 10.0244C12.559 9.80865 12.5312 9.57895 12.5312 9.34229C12.5312 7.69261 13.8677 6.35616 15.5034 6.35616C16.3805 6.35616 17.1531 6.7042 17.703 7.30281C18.3782 7.1636 19.0185 6.91998 19.5963 6.57194C19.3735 7.27497 18.9002 7.85967 18.2877 8.22858Z" fill="#292929"/>
</svg>
