
<svg width="24" height="24" viewBox="0 0 24 24" fill="none" xmlns="http://www.w3.org/2000/svg">
<path fill-rule="evenodd" clip-rule="evenodd" d="M12 24C18.6274 24 24 18.6274 24 12C24 5.37258 18.6274 0 12 0C5.37258 0 0 5.37258 0 12C0 18.6274 5.37258 24 12 24ZM19.1111 5H16.8889L13.0311 9.48113L9.77778 5H5L10.6578 12.6548L5.22222 19H7.55556C7.55556 19 10.3 15.7619 11.7244 14.0819C11.9178 14.336 15.3333 19 15.3333 19H20L14.0978 10.9297L19.1111 5ZM11.9271 10.2629C13.7134 12.6698 15.5201 15.1042 17.3544 17.5763H16.0378C13.2567 13.8697 10.4756 10.1642 7.64333 6.3921H9.05444C10.0068 7.67544 10.964 8.96516 11.9271 10.2629Z" fill="#292929"/>
</svg>
