<svg xmlns="http://www.w3.org/2000/svg" viewBox="0 0 384 336.04"><g id="Layer_2" data-name="Layer 2"><g id="Layer_1-2" data-name="Layer 1"><path fill="#fcfcfc" d="M384,59.29V78c-.38,2.71-.76,5.41-1.13,8.12-3,21.58-11.19,41.37-21,60.54-16.84,32.81-38.12,62.72-60.68,91.76-19.29,24.81-39.72,48.59-64.13,68.6-13.9,11.39-28.79,21.06-46.23,26.35-20.56,6.22-37.61,1.53-51.15-15.41-11.48-14.35-19.38-30.62-24.68-48-5.62-18.49-10.08-37.34-15.24-56C92.32,187.19,85,160.35,77.09,133.69,73.9,122.93,69.37,112.48,62,103.78c-8-9.39-13.48-10.21-22.56-4-1,.7-2.14,1.29-3.18,2-6,4-12,8-18.14,12.11L0,90.79V90c1-.75,2-1.44,2.91-2.26,18.94-17,37.72-34.29,56.87-51.11C71.7,26.2,84.22,16.38,98.64,9.44,120.26-1,142.24,5.62,154.75,26.09A83,83,0,0,1,165.61,55c4.07,23,7.45,46.08,11.45,69.07,4,22.75,8.29,45.46,16.48,67.15a90.75,90.75,0,0,0,9.8,18.82c4.44,6.53,9.82,7.15,16.07,2.28a72.45,72.45,0,0,0,12.23-12,275.59,275.59,0,0,0,34.87-57.08c5.56-12.17,9.35-24.75,7.32-38.43-1.64-11.06-8.19-18.3-19.22-19.18-7.11-.58-14.4.3-21.52,1.22-4.31.55-8.45,2.43-13.49,4,2.71-7.27,5-14,7.69-20.51,6.58-15.94,15.18-30.66,27.43-43C276.43,5.5,303.23-2.27,333.14.56c27.54,2.6,42.23,16.31,48.29,43.26C382.57,48.91,383.16,54.13,384,59.29Z"/></g></g></svg>