<svg width="24" height="24" viewBox="0 0 24 24" fill="none" xmlns="http://www.w3.org/2000/svg">
<path fill-rule="evenodd" clip-rule="evenodd" d="M24 12C24 18.6274 18.6274 24 12 24C5.37258 24 0 18.6274 0 12C0 5.37258 5.37258 0 12 0C18.6274 0 24 5.37258 24 12ZM18.7069 9.4088C18.6313 9.13252 18.4774 8.87938 18.2606 8.67495C18.0439 8.47052 17.772 8.32203 17.4724 8.2445C16.378 8 12 8 12 8C12 8 7.62205 8 6.52756 8.26779C6.228 8.34532 5.95612 8.4938 5.73936 8.69823C5.52261 8.90266 5.36866 9.1558 5.29308 9.43208C5.09277 10.4483 4.99479 11.4791 5.00036 12.5116C4.99322 13.552 5.09121 14.5907 5.29308 15.6145C5.37641 15.8822 5.5338 16.1257 5.75005 16.3215C5.9663 16.5173 6.23409 16.6588 6.52756 16.7322C7.62205 17 12 17 12 17C12 17 16.378 17 17.4724 16.7322C17.772 16.6547 18.0439 16.5062 18.2606 16.3018C18.4774 16.0973 18.6313 15.8442 18.7069 15.5679C18.9057 14.5594 19.0037 13.5364 18.9996 12.5116C19.0068 11.4713 18.9088 10.4326 18.7069 9.4088ZM14.2271 12.5117L10.5682 14.4153V10.608L14.2271 12.5117Z" fill="#292929"/>
</svg>
