<svg width="100" height="100" viewBox="0 0 100 100" fill="none" xmlns="http://www.w3.org/2000/svg">
<path d="M75.498 30.982C75.4467 30.8495 75.3587 30.7344 75.2443 30.6501C75.1299 30.5658 74.9938 30.5158 74.852 30.506L22.582 26.84C22.422 26.8294 22.2628 26.8703 22.1278 26.9568C21.9927 27.0433 21.889 27.1707 21.8317 27.3205C21.7744 27.4703 21.7667 27.6345 21.8096 27.789C21.8525 27.9435 21.9437 28.0802 22.07 28.179L54.163 53.132C54.3096 53.247 54.494 53.303 54.6798 53.289C54.8656 53.2749 55.0394 53.1918 55.167 53.056L61.324 46.56L67.635 49.511L67.638 49.505C67.728 49.5487 67.8259 49.5735 67.9258 49.5782C68.0256 49.5828 68.1254 49.5671 68.219 49.532C68.3611 49.4779 68.4834 49.3819 68.5696 49.2567C68.6559 49.1315 68.7021 48.9831 68.702 48.831V38.776L75.343 31.77C75.4409 31.6669 75.5074 31.538 75.5349 31.3985C75.5623 31.259 75.5496 31.1146 75.498 30.982ZM54.547 51.532L27.073 30.171L61.886 43.788L54.547 51.532ZM62.412 45.414L63.18 44.604L64.966 46.609L62.412 45.414ZM67.202 46.864L63.757 42.997C63.6776 42.9105 63.5784 42.8443 63.468 42.804L63.471 42.798L32.943 30.856L67.202 39.069V46.864ZM67.706 37.647L31.511 28.97L73.162 31.892L67.706 37.647ZM43.23 68.371H43.21C42.08 68.391 41.061 68.491 40.1 68.69C39.9306 68.7227 39.7779 68.8135 39.6683 68.9468C39.5588 69.0801 39.4992 69.2475 39.5 69.42C39.5 69.47 39.5 69.52 39.51 69.569C39.5446 69.7395 39.6373 69.8926 39.7723 70.0022C39.9072 70.1119 40.0761 70.1712 40.25 70.17C40.29 70.17 40.34 70.17 40.39 70.16C41.25 69.979 42.21 69.889 43.241 69.87C43.4389 69.8638 43.6267 69.781 43.7648 69.639C43.9028 69.4971 43.9803 69.3071 43.981 69.109C43.9751 68.9129 43.8937 68.7267 43.7538 68.5892C43.6138 68.4517 43.4262 68.3735 43.23 68.371ZM49.32 68.931C48.259 68.751 47.29 68.611 46.349 68.521C46.329 68.521 46.32 68.511 46.299 68.511H46.278C46.0821 68.4964 45.8884 68.5595 45.7388 68.6868C45.5892 68.8142 45.4959 68.9953 45.479 69.191C45.468 69.212 45.468 69.242 45.468 69.261C45.468 69.651 45.758 69.971 46.149 70.011C47.048 70.101 48.008 70.231 49.069 70.411C49.265 70.4419 49.4653 70.3941 49.6262 70.278C49.7871 70.1618 49.8956 69.9868 49.928 69.791C49.938 69.761 49.938 69.721 49.938 69.681C49.9425 69.5026 49.8824 69.3285 49.7689 69.1908C49.6554 69.053 49.496 68.9608 49.32 68.931ZM74.979 54.391C74.979 54.521 75.019 54.662 75.089 54.782C75.559 55.571 75.929 56.441 76.209 57.361C76.2719 57.5449 76.4035 57.6973 76.5763 57.7862C76.749 57.8752 76.9495 57.8938 77.1357 57.8382C77.3219 57.7826 77.4793 57.6571 77.575 57.488C77.6707 57.3189 77.6972 57.1193 77.649 56.931C77.339 55.901 76.91 54.921 76.379 54.021C76.179 53.671 75.699 53.551 75.349 53.751C75.2398 53.8194 75.1489 53.9135 75.0844 54.025C75.0199 54.1366 74.9837 54.2623 74.979 54.391ZM37.07 69.711C36.109 70.19 35.24 70.811 34.469 71.561C34.3294 71.703 34.2477 71.892 34.24 72.091C34.24 72.291 34.32 72.481 34.46 72.631C34.6 72.771 34.79 72.851 34.99 72.851C35.189 72.851 35.38 72.782 35.519 72.641C36.1734 71.9962 36.9261 71.4595 37.749 71.051C38.009 70.921 38.169 70.651 38.159 70.361C38.159 70.252 38.129 70.141 38.079 70.042C37.9868 69.8666 37.8299 69.734 37.6416 69.6722C37.4532 69.6104 37.2483 69.6244 37.07 69.711ZM55.24 70.121H55.219C54.419 69.94 53.369 69.711 52.319 69.501C52.309 69.501 52.309 69.501 52.29 69.491C52.0954 69.4555 51.8946 69.4972 51.7303 69.6074C51.566 69.7176 51.4511 69.8875 51.41 70.081C51.3977 70.1298 51.3907 70.1798 51.389 70.23C51.389 70.581 51.639 70.89 51.99 70.96H52C52.79 71.12 53.59 71.3 54.359 71.47L54.92 71.59C54.97 71.6 55.02 71.6 55.08 71.6C55.43 71.6 55.729 71.36 55.809 71.01C55.819 70.96 55.83 70.91 55.83 70.86C55.83 70.501 55.58 70.19 55.24 70.121ZM72.109 69.881L72 69.961C71.31 70.461 70.54 70.831 69.66 71.11C69.508 71.1596 69.3757 71.2561 69.2821 71.3857C69.1884 71.5152 69.1384 71.6712 69.139 71.831C69.139 71.911 69.149 71.98 69.169 72.051C69.269 72.371 69.559 72.581 69.889 72.581C69.959 72.581 70.039 72.56 70.119 72.541C71.102 72.2364 72.0303 71.7773 72.869 71.181C72.898 71.161 72.919 71.151 72.938 71.131L73 71.091C73.189 70.951 73.3 70.731 73.3 70.491C73.3 70.331 73.25 70.171 73.16 70.041C72.93 69.721 72.439 69.65 72.109 69.881ZM74.63 52.031C74.63 51.831 74.55 51.64 74.4 51.501C73.59 50.73 72.69 50.11 71.72 49.681C71.5376 49.6063 71.3334 49.6041 71.1494 49.6749C70.9653 49.7457 70.8153 49.8842 70.73 50.062C70.56 50.441 70.73 50.891 71.11 51.061H71.121C71.931 51.421 72.681 51.941 73.371 52.591C73.511 52.721 73.69 52.791 73.891 52.791C74.092 52.791 74.282 52.711 74.431 52.561C74.4975 52.4902 74.5494 52.4069 74.5835 52.3159C74.6177 52.225 74.6335 52.1281 74.63 52.031ZM61.1 71.261H61.08C60.1026 71.1075 59.129 70.9308 58.16 70.731C57.9651 70.6931 57.7632 70.7338 57.5983 70.8444C57.4334 70.955 57.3189 71.1263 57.28 71.321C57.2678 71.3702 57.2608 71.4204 57.259 71.471C57.269 71.831 57.519 72.131 57.869 72.201C58.949 72.421 59.909 72.591 60.789 72.73C60.809 72.741 60.829 72.741 60.849 72.741H60.859C61.0536 72.7691 61.2514 72.72 61.4103 72.6041C61.5691 72.4883 61.6763 72.3149 61.709 72.121C61.709 72.081 61.719 72.041 61.719 72.001C61.7178 71.825 61.6554 71.6549 61.5425 71.5198C61.4295 71.3848 61.2731 71.2933 61.1 71.261ZM76.67 65.251C76.31 65.07 75.85 65.241 75.68 65.601C75.68 65.611 75.68 65.611 75.67 65.611C75.28 66.452 74.77 67.242 74.17 67.962C74.06 68.102 73.99 68.272 73.99 68.441C73.99 68.662 74.09 68.881 74.26 69.021C74.4 69.131 74.57 69.191 74.74 69.191C74.969 69.191 75.179 69.101 75.319 68.931C76.009 68.101 76.59 67.202 77.03 66.242C77.0822 66.1438 77.1061 66.033 77.099 65.922C77.0994 65.7808 77.0592 65.6425 76.9831 65.5235C76.9071 65.4045 76.7984 65.3099 76.67 65.251ZM78.2 60.101V60.051C78.2 60.041 78.189 60.041 78.189 60.031C78.1747 59.8352 78.0837 59.6529 77.9358 59.5238C77.7879 59.3946 77.595 59.3289 77.399 59.341C77.2075 59.3496 77.027 59.433 76.8963 59.5732C76.7656 59.7135 76.6951 59.8994 76.7 60.091V60.131C76.7519 61.0711 76.6952 62.014 76.531 62.941C76.52 62.992 76.51 63.042 76.52 63.091C76.52 63.441 76.781 63.751 77.13 63.811C77.17 63.821 77.22 63.821 77.27 63.821C77.621 63.821 77.93 63.571 78 63.221V63.211L78.01 63.19C78.1946 62.1714 78.2584 61.1346 78.2 60.101ZM66.95 71.61C66.929 71.61 66.91 71.61 66.889 71.621C65.95 71.681 65.089 71.681 63.999 71.6C63.8013 71.5915 63.6078 71.6595 63.4589 71.7898C63.3099 71.9202 63.2168 72.1029 63.199 72.3V72.33C63.1933 72.5222 63.2616 72.7093 63.3898 72.8526C63.518 72.9959 63.6964 73.0845 63.888 73.1C64.508 73.14 65.078 73.161 65.628 73.161C66.107 73.161 66.558 73.15 66.998 73.11C67.1891 73.0977 67.3679 73.0114 67.4965 72.8696C67.6251 72.7277 67.6934 72.5414 67.687 72.35V72.31C67.6752 72.1219 67.5926 71.9452 67.4559 71.8154C67.3193 71.6855 67.1385 71.6122 66.95 71.61Z" fill="#EEEDE4"/>
</svg>
