<svg width="100" height="100" viewBox="0 0 100 100" fill="none" xmlns="http://www.w3.org/2000/svg">
<path d="M49.9999 13.3999C40.1999 13.3999 30.9999 17.1999 24.0999 24.0999C17.1999 30.9999 13.3999 40.1999 13.3999 49.9999C13.3999 59.7999 17.1999 68.9999 24.0999 75.8999C30.9999 82.7999 40.1999 86.5999 49.9999 86.5999C59.7999 86.5999 68.9999 82.7999 75.8999 75.8999C82.7999 68.9999 86.5999 59.7999 86.5999 49.9999C86.5999 40.1999 82.7999 30.9999 75.8999 24.0999C68.9999 17.1999 59.7999 13.3999 49.9999 13.3999ZM74.4999 74.4999C67.8999 80.9999 59.1999 84.5999 49.9999 84.5999C40.7999 84.5999 32.0999 80.9999 25.4999 74.4999C18.8999 67.9999 15.3999 59.1999 15.3999 49.9999C15.3999 40.7999 18.9999 32.0999 25.4999 25.4999C31.9999 18.8999 40.7999 15.3999 49.9999 15.3999C59.1999 15.3999 67.8999 18.9999 74.4999 25.4999C81.0999 31.9999 84.5999 40.7999 84.5999 49.9999C84.5999 59.1999 80.9999 67.8999 74.4999 74.4999Z" fill="#EEEDE4"/>
<path d="M66.6001 31.8C66.2001 31.4 65.6001 31.4 65.2001 31.8L41.9001 55.2L34.8001 48C34.4001 47.6 33.8001 47.6 33.4001 48L27.9001 53.5C27.7001 53.7 27.6001 53.9 27.6001 54.2C27.6001 54.5 27.7001 54.7 27.9001 54.9L41.3001 68.1C41.5001 68.3 41.7001 68.4 42.0001 68.4C42.3001 68.4 42.5001 68.3 42.7001 68.1L72.1001 38.7C72.5001 38.3 72.5001 37.7 72.1001 37.3L66.6001 31.8ZM42.0001 66L30.0001 54.2L34.1001 50.1L41.2001 57.2C41.6001 57.6 42.2001 57.6 42.6001 57.2L65.9001 34L70.0001 38L42.0001 66Z" fill="#EEEDE4"/>
</svg>
